<?xml version="1.0" encoding="utf-8"?>
<!-- Generator: Adobe Illustrator 22.1.0, SVG Export Plug-In . SVG Version: 6.00 Build 0)  -->
<svg version="1.1"
	 id="svg2" xmlns:cc="http://creativecommons.org/ns#" xmlns:dc="http://purl.org/dc/elements/1.1/" xmlns:inkscape="http://www.inkscape.org/namespaces/inkscape" xmlns:rdf="http://www.w3.org/1999/02/22-rdf-syntax-ns#" xmlns:sodipodi="http://sodipodi.sourceforge.net/DTD/sodipodi-0.dtd" xmlns:svg="http://www.w3.org/2000/svg"
	 xmlns="http://www.w3.org/2000/svg" xmlns:xlink="http://www.w3.org/1999/xlink" x="0px" y="0px" viewBox="0 0 72 60"
	 style="enable-background:new 0 0 72 60;" xml:space="preserve">
<path id="rect4208" d="M20.2,0H22c1.5,0,2.7,1.2,2.7,2.7v5.5c0,1.5-1.2,2.7-2.7,2.7h-1.8c-1.5,0-2.7-1.2-2.7-2.7V2.7
	C17.6,1.2,18.8,0,20.2,0z M50.7,0h1.8c1.5,0,2.7,1.2,2.7,2.7v5.5c0,1.5-1.2,2.7-2.7,2.7h-1.8c-1.5,0-2.7-1.2-2.7-2.7V2.7
	C48.1,1.2,49.3,0,50.7,0z M6.8,7.1h7.3v1c0,3.1,2.8,5.8,6.2,5.8H22c3.4,0,6.2-2.6,6.2-5.8v-1h16.4v1c0,3.1,2.8,5.8,6.2,5.8h1.8
	c3.4,0,6.2-2.6,6.2-5.8v-1h6.5c3.7,0,6.8,2.9,6.8,6.4v40.2c0,3.5-3.1,6.4-6.8,6.4H6.8C3.1,60,0,57.1,0,53.6V13.5
	C0,10,3.1,7.1,6.8,7.1z M7.7,20.3V51h56.6V20.3H7.7z M14.1,27.5h10.1V34H14.1V27.5z M31,27.5H41V34H31V27.5z M47.7,27.5h10.1V34
	H47.7V27.5z M14.1,37.7h10.1v6.5H14.1V37.7z M31,37.7H41v6.5H31V37.7z M47.7,37.7h10.1v6.5H47.7V37.7z"/>
</svg>
