<?xml version="1.0" encoding="utf-8"?>
<!-- Generator: Adobe Illustrator 22.1.0, SVG Export Plug-In . SVG Version: 6.00 Build 0)  -->
<svg version="1.1" id="Layer_1" xmlns="http://www.w3.org/2000/svg" xmlns:xlink="http://www.w3.org/1999/xlink" x="0px" y="0px"
	 viewBox="0 0 72 60" style="enable-background:new 0 0 72 60;" xml:space="preserve">
<path d="M38,60h27.2c3.8,0,6.8-3.4,6.8-7.4V7.4C72,3.4,68.9,0,65.2,0H6.8C3.1,0,0,3.4,0,7.4v45.1C0,56.7,3.1,60,6.8,60H34H38z
	 M68,52.6c0,1.8-1.3,3.1-2.8,3.1H6.8c-1.6,0-2.8-1.4-2.8-3.1V7.4c0-1.6,1.3-3.1,2.8-3.1h58.4c1.6,0,2.8,1.4,2.8,3.1
	C68,7.4,68,52.6,68,52.6z"/>
<path d="M56.1,13.4c-3.4,0-6.3,2.8-6.3,6.3c0,1.5,0.5,2.8,1.3,3.9l-6.9,10.6c-0.5-0.1-1-0.2-1.6-0.2c-0.8,0-1.5,0.1-2.2,0.4
	l-5.9-7.2c0.6-1,1-2.1,1-3.3c0-3.4-2.8-6.3-6.3-6.3s-6.3,2.8-6.3,6.3c0,1,0.3,2,0.7,2.9l-5.2,5.4c-0.8-0.4-1.7-0.6-2.7-0.6
	c-3.4,0-6.3,2.8-6.3,6.3s2.8,6.3,6.3,6.3s6.3-2.8,6.3-6.3c0-1-0.3-2-0.7-2.9l5.2-5.4c0.8,0.4,1.7,0.6,2.7,0.6c0.8,0,1.5-0.1,2.2-0.4
	l5.9,7.2c-0.6,1-1,2.1-1,3.3c0,3.4,2.8,6.3,6.3,6.3s6.3-2.8,6.3-6.3c0-1.5-0.5-2.8-1.3-3.9l6.9-10.6c0.5,0.1,1,0.2,1.6,0.2
	c3.4,0,6.3-2.8,6.3-6.3C62.4,16.2,59.5,13.4,56.1,13.4z M15.9,40.1c-1.2,0-2.3-1-2.3-2.3s1-2.3,2.3-2.3s2.3,1,2.3,2.3
	S17.1,40.1,15.9,40.1z M27.1,23.9c0-1.2,1-2.3,2.3-2.3s2.3,1,2.3,2.3s-1,2.3-2.3,2.3S27.1,25.1,27.1,23.9z M42.7,42.5
	c-1.2,0-2.3-1-2.3-2.3s1-2.3,2.3-2.3s2.3,1,2.3,2.3S43.9,42.5,42.7,42.5z M56.1,21.9c-1.2,0-2.3-1-2.3-2.3s1-2.3,2.3-2.3
	s2.3,1,2.3,2.3S57.3,21.9,56.1,21.9z"/>
</svg>
