<?xml version="1.0" encoding="utf-8"?>
<!-- Generator: Adobe Illustrator 22.1.0, SVG Export Plug-In . SVG Version: 6.00 Build 0)  -->
<svg version="1.1" id="Layer_1" xmlns="http://www.w3.org/2000/svg" xmlns:xlink="http://www.w3.org/1999/xlink" x="0px" y="0px"
	 viewBox="0 0 26 30" style="enable-background:new 0 0 26 30;" xml:space="preserve">
<path d="M24.8,16.2c0.7-0.5,1.2-1.4,1.2-2.4c0-1.7-1.3-3-3-3H11.8c0,0,1.2-3.9,1.2-4.8c0-2.7,0-6-3.5-6C8.3,0,8.3,0,8.3,0L7.7,4.2
	L4.9,9.5C4,11,2.5,12,0.7,12H0v15.6h2.4C3.8,29.1,5.9,30,8.1,30h12c1.3,0,2.4-1.1,2.4-2.4v-1.3c1.3-0.3,2.4-1.5,2.4-2.9
	c0-0.8-0.3-1.5-0.8-2c1.1-0.4,1.9-1.5,1.9-2.8C26,17.6,25.5,16.7,24.8,16.2z"/>
</svg>
